<svg xmlns="http://www.w3.org/2000/svg" viewBox="0 0 93.1 80.79"><defs><style>.cls-1{fill:#1d1d1b;}</style></defs><title>ic_partner-bold</title><g id="Ebene_2" data-name="Ebene 2"><g id="Partner_bold" data-name="Partner bold"><path class="cls-1" d="M93.08,24.37A25.32,25.32,0,0,0,49.26,8.05L46.55,11,43.84,8.05A25.38,25.38,0,0,0,8.05,6.75a25.39,25.39,0,0,0-1.3,35.78L13.68,50l2,2.12a8.62,8.62,0,0,0,1.87,2.54,7.73,7.73,0,0,0,5.25,2.14,8.64,8.64,0,0,0,2.7,5.81,7.9,7.9,0,0,0,5,2.13A7.84,7.84,0,0,0,33,70.12l.49.46a7.9,7.9,0,0,0,5,2.13A8,8,0,0,0,41,78.1l.49.46a8.45,8.45,0,0,0,5.7,2.23,7.75,7.75,0,0,0,5.71-2.4l9.51-10.12L86.35,42.53A25.12,25.12,0,0,0,93.08,24.37ZM17.2,42.51a8.41,8.41,0,0,0-1.4,2l-5.18-5.57A20,20,0,0,1,25.27,5.27H26A19.93,19.93,0,0,1,40,11.65L59.1,32.18a2.54,2.54,0,0,1,.7,1.88A2.6,2.6,0,0,1,59,35.9l-.4.37a2.49,2.49,0,0,1-1.88.7,2.56,2.56,0,0,1-1.83-.82l-14-14.91a2.73,2.73,0,0,0-3.87,0L25.33,33.85Zm65.28-3.58L58.55,64.66l-9.49,10.1a2.5,2.5,0,0,1-1.86.74,3,3,0,0,1-2.08-.8l-.49-.45a2.64,2.64,0,0,1-.12-3.72l8.59-9.15a1.84,1.84,0,0,0,.31-.43l.85-.9A2.65,2.65,0,0,0,55,58.16a2.62,2.62,0,0,0-.84-1.84,2.58,2.58,0,0,0-1.89-.72,2.65,2.65,0,0,0-1.85.83L40.86,66.61a2.62,2.62,0,0,1-1.84.82,2.68,2.68,0,0,1-1.88-.71l-.49-.46a2.66,2.66,0,0,1-.12-3.72l8.58-9.14a1.91,1.91,0,0,0,.32-.43l.85-.9A2.6,2.6,0,0,0,47,50.18a2.65,2.65,0,0,0-.83-1.85,2.66,2.66,0,0,0-3.74.12L32.88,58.62a2.63,2.63,0,0,1-3.72.12A3.3,3.3,0,0,1,29,54.07l8.12-8.65a1.4,1.4,0,0,0,.17-.2l1-1.1A2.6,2.6,0,0,0,39,42.23a2.63,2.63,0,0,0-.83-1.85,2.68,2.68,0,0,0-1.9-.71,2.63,2.63,0,0,0-1.84.83L24.93,50.67A2.65,2.65,0,0,1,23,51.5a2.58,2.58,0,0,1-1.79-.71,3.31,3.31,0,0,1-.15-4.67l8.14-8.67L39,26.93,51,39.77a7.85,7.85,0,0,0,5.52,2.49,7.77,7.77,0,0,0,5.67-2.13l.4-.38A7.93,7.93,0,0,0,63,28.56L50.17,14.85l3-3.2A20,20,0,0,1,82.48,38.93Z"/></g></g></svg>