<?xml version="1.0" encoding="utf-8"?>
<!-- Generator: Adobe Illustrator 24.0.3, SVG Export Plug-In . SVG Version: 6.00 Build 0)  -->
<svg version="1.1" id="Ebene_1" xmlns="http://www.w3.org/2000/svg" xmlns:xlink="http://www.w3.org/1999/xlink" x="0px" y="0px"
	 viewBox="0 0 97.4 25.9" style="enable-background:new 0 0 97.4 25.9;" xml:space="preserve">
<style type="text/css">
	.st0{fill:#2B3130;}
</style>
<path class="st0" d="M-0.3,24.9l0-10.3h5.6c0,0,0,0,0.1,0c0.2,0,0.7,0,1.2-0.1c0.4-0.1,0.9-0.2,1.1-0.3c0.5-0.2,0.9-0.4,1.2-0.6
	C9.4,13.3,9.6,13,9.6,13l0,0l0,0c0,0-0.2-0.2-0.6-0.5c-0.2-0.1-0.6-0.4-1.2-0.6c-0.5-0.2-1.2-0.4-1.8-0.4c-0.6-0.1-1.1-0.1-1.1-0.1
	l-5.2,0V1l0.4,0h6.5c0.4,0,0.7,0,0.7,0c0,0,1.9,0.1,3.7,0.9c1.3,0.6,2.5,1.8,3.2,3.3c0.6,1.3,0.8,3.4,0.4,5
	c-0.4,1.6-1.3,2.7-1.3,2.7l0,0l0,0c0,0,1.2,1.3,1.5,3.3c0.3,2.2-0.2,3.6-0.7,4.6c-1.1,2.3-3.5,3.2-4.1,3.4c-0.5,0.2-1.2,0.3-1.7,0.4
	c-0.5,0.1-1.3,0.1-2.2,0.1h0H-0.3L-0.3,24.9z M2.7,22l3.7,0c0.4,0,1.6,0,2.5-0.4c0.9-0.3,1.7-0.9,2.1-1.6c0.6-0.9,0.8-2.1,0.8-3
	c-0.1-1.1-0.5-1.8-0.5-1.8l0,0l0,0c0,0-0.5,0.4-1.2,0.8c-0.5,0.3-1.2,0.8-2.2,1c-0.5,0.1-1,0.2-1.4,0.3c-0.4,0-0.8,0.1-1.1,0.1
	l-0.1,0c-0.5,0-1,0-1.6,0c-0.6,0-1,0-1,0l0,0V22L2.7,22z M3.8,8.5c0.5,0,1.1,0,1.6,0l0.2,0c0.3,0,0.7,0,1,0.1C7,8.7,7.5,8.8,8,8.9
	c1,0.3,1.7,0.6,2.2,0.9c0.7,0.4,1.2,0.8,1.2,0.8l0,0l0,0c0,0,0.4-0.8,0.5-1.8c0-0.7-0.1-1.5-0.4-2.2c-0.1-0.2-0.2-0.5-0.4-0.7
	C10.7,5.2,9.9,4.6,9,4.3C8.6,4.1,8.1,4,7.6,3.9C6.9,3.8,6.4,3.8,6.4,3.8H2.7v4.7l0,0C2.8,8.5,3.2,8.5,3.8,8.5L3.8,8.5z"/>
<path class="st0" d="M24,9.2c-1.7,0-2.3,0.5-2.6,0.7V6.3h-0.9v11.1h0.9v-0.5c0.3,0.3,1,0.7,2.7,0.7c2,0,3.1-0.8,3.1-2.1v-4.1
	C27.1,10,25.9,9.2,24,9.2L24,9.2z M21.4,15.2v-3.6c0-1.2,0.8-1.8,2.6-1.8c1.4,0,2.2,0.5,2.2,1.5v4.1c0,1-0.8,1.5-2.2,1.5
	C22.2,17,21.4,16.4,21.4,15.2L21.4,15.2z"/>
<path class="st0" d="M33.5,9.3c-1.9,0-2.9,0.9-3.2,1.2V9.4h-0.8v7.9h0.9v-5.2c0-0.9,1.1-2.2,3.2-2.2c0.1,0,0.3,0,0.3,0l0.1,0V9.3
	l-0.1,0C33.8,9.3,33.7,9.3,33.5,9.3L33.5,9.3z"/>
<path class="st0" d="M38.6,9.2c-2.2,0-3.3,0.8-3.3,2.2v4c0,1.4,1.2,2.2,3.3,2.2c2.1,0,3.3-0.8,3.3-2.2v-0.5H41v0.5
	c0,1.1-0.8,1.6-2.4,1.6c-1.6,0-2.4-0.6-2.4-1.6v-2h5.8v-1.9C41.9,10,40.8,9.2,38.6,9.2L38.6,9.2z M38.6,9.8c1.6,0,2.4,0.6,2.4,1.6
	v1.3h-4.9v-1.3C36.2,10.4,37,9.8,38.6,9.8L38.6,9.8z"/>
<path class="st0" d="M49.7,15.2c0,1.2-0.8,1.8-2.5,1.8c-1,0-2.2-0.3-2.2-1.5v-6h-0.9v6c0,1.4,1.1,2.1,3.1,2.1c1.5,0,2.2-0.4,2.6-0.7
	v0.5h0.9V9.4h-0.9V15.2L49.7,15.2z"/>
<path class="st0" d="M56.5,9.2c-1.5,0-2.2,0.4-2.7,0.8V9.4H53v7.9h0.9v-5.8c0-1.2,0.8-1.8,2.6-1.8c1.4,0,2.2,0.5,2.2,1.5v6h0.9v-6
	C59.6,10,58.4,9.2,56.5,9.2L56.5,9.2z"/>
<polygon class="st0" points="62,17.4 62.9,17.4 62.9,9.4 62,9.4 62,17.4 "/>
<path class="st0" d="M68.9,9.2c-1.5,0-2.2,0.4-2.7,0.8V9.4h-0.9v7.9h0.9v-5.8c0-1.2,0.8-1.8,2.6-1.8c1.4,0,2.2,0.5,2.2,1.5v6H72v-6
	C72,10,70.8,9.2,68.9,9.2L68.9,9.2z"/>
<path class="st0" d="M80,10c-0.3-0.3-1-0.7-2.7-0.7c-2,0-3.1,0.8-3.1,2.1v4.1c0,1.4,1.1,2.1,3.1,2.1c1.2,0,2-0.2,2.6-0.7v1.6
	c0,1-0.8,1.6-2.2,1.6h-0.2c-2.1,0-2.3-0.9-2.3-1.6v-0.2h-0.9v0.3c0,1.4,1.1,2.2,3.2,2.2c2.1,0,3.3-0.8,3.3-2.2V9.4H80V10L80,10z
	 M75.1,15.4v-4.1c0-1,0.8-1.5,2.2-1.5c1.7,0,2.6,0.6,2.6,1.8v3.6c0,1.2-0.8,1.8-2.6,1.8C75.9,17,75.1,16.4,75.1,15.4L75.1,15.4z"/>
<path class="st0" d="M86.3,9.2c-2.2,0-3.3,0.8-3.3,2.2v4c0,1.4,1.2,2.2,3.3,2.2c2.1,0,3.3-0.8,3.3-2.2v-0.5h-0.9v0.5
	c0,1.1-0.8,1.6-2.4,1.6c-1.6,0-2.4-0.6-2.4-1.6v-2h5.8v-1.9C89.7,10,88.5,9.2,86.3,9.2L86.3,9.2z M86.3,9.8c1.6,0,2.4,0.6,2.4,1.6
	v1.3h-4.9v-1.3C83.9,10.4,84.7,9.8,86.3,9.8L86.3,9.8z"/>
<path class="st0" d="M96.4,9.3c-0.2,0-0.3,0-0.5,0c-1.8,0-2.8,0.9-3.2,1.3V9.4h-0.8v7.9h0.9v-5.2c0-0.9,1.1-2.2,3.2-2.2
	c0.1,0,0.3,0,0.3,0l0.1,0L96.4,9.3L96.4,9.3L96.4,9.3z"/>
</svg>
